<?xml version="1.0" standalone="no"?>
<!DOCTYPE svg PUBLIC "-//W3C//DTD SVG 20010904//EN"
 "http://www.w3.org/TR/2001/REC-SVG-20010904/DTD/svg10.dtd">
<svg version="1.0" xmlns="http://www.w3.org/2000/svg"
 width="200.000000pt" height="200.000000pt" viewBox="0 0 200.000000 200.000000"
 preserveAspectRatio="xMidYMid meet">
<metadata>
Created by potrace 1.10, written by Peter Selinger 2001-2011
</metadata>
<g transform="translate(0.000000,200.000000) scale(0.100000,-0.100000)"
fill="#008484" stroke="none">
<path d="M255 1279 c-34 -13 -85 -57 -85 -73 1 -6 9 -1 20 12 40 48 151 69
256 49 86 -17 164 -65 188 -115 19 -39 32 -38 17 0 -15 40 -71 86 -131 109
-64 25 -218 35 -265 18z"/>
<path d="M1592 1225 c-34 -31 -95 -96 -137 -146 -50 -60 -75 -83 -75 -70 0 11
21 40 46 65 41 42 43 46 22 46 -40 0 -148 -67 -148 -92 0 -17 29 -7 59 21 34
31 41 25 15 -14 -20 -31 -12 -59 15 -50 11 3 36 21 57 40 21 19 41 35 45 35 4
0 9 7 12 14 4 11 1 13 -11 9 -9 -4 26 32 78 80 51 48 100 87 107 87 18 0 16
17 -3 24 -9 3 -17 6 -18 6 -1 0 -30 -25 -64 -55z"/>
<path d="M1243 1248 c-2 -5 -36 -23 -76 -41 -96 -45 -179 -103 -252 -177 -48
-49 -57 -63 -45 -70 10 -6 24 -2 45 15 26 19 33 21 41 9 8 -13 16 -12 64 2 69
22 67 21 115 33 22 6 41 14 43 20 2 5 10 7 18 4 8 -3 14 0 14 7 0 7 8 9 20 5
31 -10 130 39 130 64 0 23 -27 41 -64 41 -38 0 -40 17 -3 24 17 3 47 15 65 26
28 17 32 23 22 35 -9 11 -30 14 -72 13 -33 -2 -62 -6 -65 -10z m87 -20 c-14
-7 -43 -20 -64 -30 -46 -21 -66 -24 -49 -7 7 7 36 20 65 30 58 20 88 24 48 7z
m-130 -22 c0 -2 -19 -15 -42 -29 -24 -14 -83 -55 -133 -92 -49 -37 -79 -56
-65 -41 36 39 119 102 181 136 57 32 59 32 59 26z m-10 -56 c0 -5 26 -10 58
-11 31 0 66 -4 77 -8 16 -6 9 -12 -38 -29 -32 -12 -63 -22 -70 -22 -7 0 -17
-4 -22 -9 -6 -5 -39 -18 -75 -29 -36 -11 -74 -23 -84 -28 -14 -5 -17 -4 -12 4
4 7 35 25 69 42 34 16 55 29 47 30 -16 0 -86 -34 -145 -70 -19 -12 -35 -17
-35 -11 0 6 4 11 8 11 5 0 53 32 107 70 99 70 115 79 115 60z"/>
<path d="M238 1206 c-95 -34 -146 -96 -132 -160 21 -96 167 -216 262 -216 41
0 106 22 117 40 9 14 -5 12 -35 -5 -59 -34 -129 -14 -199 56 -24 23 -29 26
-18 9 31 -45 17 -40 -33 13 -27 28 -50 57 -50 62 0 6 -7 22 -14 38 -8 15 -11
27 -6 27 5 0 7 7 4 15 -4 8 0 23 7 32 8 9 13 18 12 20 -2 1 -3 6 -3 11 1 4 8
-4 16 -18 8 -14 13 -17 10 -8 -15 51 131 106 249 93 74 -9 128 -32 120 -53 -4
-10 -1 -12 11 -8 12 5 15 2 10 -9 -3 -9 -2 -14 3 -10 11 6 22 -42 17 -70 -3
-11 -5 -20 -6 -20 -1 0 -3 -10 -4 -22 -2 -13 -10 -31 -19 -41 -10 -10 -14 -22
-10 -26 4 -4 0 -4 -9 -1 -9 4 -19 1 -24 -6 -5 -8 -3 -10 7 -4 8 4 1 -4 -16
-19 -19 -16 -42 -25 -64 -26 -47 0 -36 -6 22 -12 47 -6 49 -5 81 38 18 24 35
41 38 39 2 -2 4 4 5 13 16 161 16 156 -8 186 -55 70 -209 89 -341 42z"/>
<path d="M1547 1112 c-15 -9 -25 -22 -23 -28 3 -7 -4 -20 -15 -30 -20 -18 -26
-54 -9 -54 6 0 10 6 10 13 0 14 39 56 73 80 16 11 16 15 5 24 -10 9 -20 7 -41
-5z"/>
<path d="M1655 1114 c-43 -15 -123 -80 -112 -91 4 -3 26 4 48 16 l41 23 -17
-26 c-20 -30 -14 -56 12 -55 11 0 13 3 6 6 -25 9 -13 42 32 87 25 24 42 47 38
49 -5 2 -26 -2 -48 -9z"/>
<path d="M1773 1116 c-63 -22 -150 -96 -113 -96 19 0 70 37 62 45 -4 5 -1 5 5
1 10 -6 10 -14 -2 -37 -17 -33 -13 -49 13 -49 13 0 14 2 3 9 -20 13 -5 45 40
86 45 41 42 59 -8 41z"/>
<path d="M636 1073 c-4 -21 -14 -49 -23 -62 -8 -13 -10 -20 -4 -16 21 12 55
95 44 106 -7 7 -13 -2 -17 -28z"/>
<path d="M186 1078 c8 -29 23 -48 38 -48 6 0 3 5 -6 11 -10 5 -18 21 -18 34 0
14 -5 25 -11 25 -6 0 -8 -9 -3 -22z"/>
<path d="M666 1005 c-17 -72 -95 -175 -132 -175 -8 0 -12 -5 -9 -11 7 -10 66
28 93 61 24 28 64 120 59 138 -3 12 -6 8 -11 -13z"/>
<path d="M1077 903 c-12 -11 -8 -103 4 -103 6 0 9 9 6 20 -3 13 1 21 14 25 10
4 20 12 20 18 1 7 4 -4 8 -23 5 -29 10 -35 31 -35 22 0 25 5 28 41 4 50 -17
74 -42 49 -15 -15 -17 -15 -32 -1 -17 17 -27 20 -37 9z m33 -28 c0 -8 -7 -15
-15 -15 -8 0 -15 7 -15 15 0 8 7 15 15 15 8 0 15 -7 15 -15z m66 0 c8 -20 -4
-65 -16 -65 -6 0 -10 18 -10 40 0 40 15 54 26 25z"/>
<path d="M1263 898 c-2 -5 3 -8 11 -8 11 0 16 -14 19 -47 l3 -48 2 48 c1 26 7
47 12 47 6 0 10 4 10 9 0 11 -50 9 -57 -1z"/>
<path d="M1410 895 c-6 -7 -10 -31 -8 -52 2 -31 7 -39 26 -41 20 -3 22 0 22
46 0 52 -18 74 -40 47z m30 -46 c0 -28 -4 -39 -12 -37 -24 8 -22 78 2 78 5 0
10 -18 10 -41z"/>
<path d="M1560 895 c-6 -7 -10 -31 -8 -52 2 -30 7 -39 25 -41 17 -3 24 3 29
22 13 53 -19 103 -46 71z m30 -46 c0 -28 -4 -39 -12 -37 -24 8 -22 78 2 78 5
0 10 -18 10 -41z"/>
<path d="M1201 848 c1 -29 4 -43 6 -30 5 24 23 31 23 8 0 -8 5 -18 12 -22 8
-5 9 0 5 16 -3 13 -2 29 4 36 15 18 -1 44 -27 44 -22 0 -24 -3 -23 -52z m39
27 c0 -8 -7 -15 -15 -15 -8 0 -15 7 -15 15 0 8 7 15 15 15 8 0 15 -7 15 -15z"/>
<path d="M1339 888 c-4 -63 -3 -81 3 -85 5 -2 8 4 8 14 0 11 5 24 12 31 9 9 9
12 0 12 -22 0 -13 29 11 33 19 4 18 4 -5 6 -16 0 -28 -4 -29 -11z"/>
<path d="M1472 853 c-2 -49 0 -53 21 -52 16 1 17 3 5 6 -12 3 -18 18 -21 51
l-3 47 -2 -52z"/>
<path d="M1522 855 c0 -25 4 -47 9 -51 5 -3 9 17 9 45 0 28 -4 51 -9 51 -5 0
-9 -20 -9 -45z"/>
<path d="M486 813 c-3 -4 -25 -10 -49 -14 l-42 -6 48 -2 c28 -1 47 3 47 10 0
6 7 8 16 5 8 -3 12 -2 9 4 -7 12 -19 13 -29 3z"/>
</g>
</svg>
