<?xml version="1.0" standalone="no"?>
<svg viewBox="0 0 200 200" xmlns="http://www.w3.org/2000/svg">
  <path fill="#840000" d="M42.5,-73C56,-65.9,68.3,-56.2,73.7,-43.6C79,-31,77.4,-15.5,76.5,-0.5C75.6,14.5,75.4,29,69.9,41.3C64.4,53.6,53.5,63.8,41,72.8C28.5,81.8,14.2,89.7,-1.1,91.5C-16.4,93.4,-32.8,89.3,-44,79.5C-55.2,69.7,-61.2,54.2,-68.5,40.1C-75.8,25.9,-84.4,12.9,-87.4,-1.7C-90.4,-16.4,-87.8,-32.8,-79.7,-45.6C-71.6,-58.4,-58,-67.6,-43.8,-74.2C-29.6,-80.9,-14.8,-84.9,-0.1,-84.7C14.5,-84.5,29.1,-80,42.5,-73Z" transform="translate(100 100)" />
</svg>
